<svg width="854" height="265" viewBox="0 0 854 265" fill="none" xmlns="http://www.w3.org/2000/svg">
<path d="M434.233 135.491C434.793 133.413 435.189 131.303 435.485 129.193C435.782 127.017 435.98 124.874 436.046 122.763C435.485 126.753 434.859 131.006 434.233 135.491Z" fill="black"/>
<path d="M456.259 138.556C456.226 138.886 456.16 139.216 456.127 139.545C456.721 137.138 457.182 134.731 457.512 132.291C457.842 129.884 458.072 127.477 458.204 125.104C457.578 129.324 456.918 133.808 456.259 138.556Z" fill="black"/>
<path d="M195.881 110.992C192.814 105.485 188 102.716 181.439 102.716C179.856 102.716 178.603 102.782 177.713 102.914C175.273 103.507 173.822 105.485 173.361 108.783L167.096 153.295C166.964 154.251 167.195 155.174 167.822 156.032C168.448 156.889 169.371 157.317 170.624 157.317C178.537 157.317 185 154.614 189.946 149.239C195.023 143.832 198.09 137.468 199.145 130.116C200.167 122.763 199.079 116.399 195.881 110.992ZM195.881 110.992C192.814 105.485 188 102.716 181.439 102.716C179.856 102.716 178.603 102.782 177.713 102.914C175.273 103.507 173.822 105.485 173.361 108.783L167.096 153.295C166.964 154.251 167.195 155.174 167.822 156.032C168.448 156.889 169.371 157.317 170.624 157.317C178.537 157.317 185 154.614 189.946 149.239C195.023 143.832 198.09 137.468 199.145 130.116C200.167 122.763 199.079 116.399 195.881 110.992ZM195.881 110.992C192.814 105.485 188 102.716 181.439 102.716C179.856 102.716 178.603 102.782 177.713 102.914C175.273 103.507 173.822 105.485 173.361 108.783L167.096 153.295C166.964 154.251 167.195 155.174 167.822 156.032C168.448 156.889 169.371 157.317 170.624 157.317C178.537 157.317 185 154.614 189.946 149.239C195.023 143.832 198.09 137.468 199.145 130.116C200.167 122.763 199.079 116.399 195.881 110.992ZM195.881 110.992C192.814 105.485 188 102.716 181.439 102.716C179.856 102.716 178.603 102.782 177.713 102.914C175.273 103.507 173.822 105.485 173.361 108.783L167.096 153.295C166.964 154.251 167.195 155.174 167.822 156.032C168.448 156.889 169.371 157.317 170.624 157.317C178.537 157.317 185 154.614 189.946 149.239C195.023 143.832 198.09 137.468 199.145 130.116C200.167 122.763 199.079 116.399 195.881 110.992ZM195.881 110.992C192.814 105.485 188 102.716 181.439 102.716C179.856 102.716 178.603 102.782 177.713 102.914C175.273 103.507 173.822 105.485 173.361 108.783L167.096 153.295C166.964 154.251 167.195 155.174 167.822 156.032C168.448 156.889 169.371 157.317 170.624 157.317C178.537 157.317 185 154.614 189.946 149.239C195.023 143.832 198.09 137.468 199.145 130.116C200.167 122.763 199.079 116.399 195.881 110.992ZM195.881 110.992C192.814 105.485 188 102.716 181.439 102.716C179.856 102.716 178.603 102.782 177.713 102.914C175.273 103.507 173.822 105.485 173.361 108.783L167.096 153.295C166.964 154.251 167.195 155.174 167.822 156.032C168.448 156.889 169.371 157.317 170.624 157.317C178.537 157.317 185 154.614 189.946 149.239C195.023 143.832 198.09 137.468 199.145 130.116C200.167 122.763 199.079 116.399 195.881 110.992ZM195.881 110.992C192.814 105.485 188 102.716 181.439 102.716C179.856 102.716 178.603 102.782 177.713 102.914C175.273 103.507 173.822 105.485 173.361 108.783L167.096 153.295C166.964 154.251 167.195 155.174 167.822 156.032C168.448 156.889 169.371 157.317 170.624 157.317C178.537 157.317 185 154.614 189.946 149.239C195.023 143.832 198.09 137.468 199.145 130.116C200.167 122.763 199.079 116.399 195.881 110.992ZM195.881 110.992C192.814 105.485 188 102.716 181.439 102.716C179.856 102.716 178.603 102.782 177.713 102.914C175.273 103.507 173.822 105.485 173.361 108.783L167.096 153.295C166.964 154.251 167.195 155.174 167.822 156.032C168.448 156.889 169.371 157.317 170.624 157.317C178.537 157.317 185 154.614 189.946 149.239C195.023 143.832 198.09 137.468 199.145 130.116C200.167 122.763 199.079 116.399 195.881 110.992ZM195.881 110.992C192.814 105.485 188 102.716 181.439 102.716C179.856 102.716 178.603 102.782 177.713 102.914C175.273 103.507 173.822 105.485 173.361 108.783L167.096 153.295C166.964 154.251 167.195 155.174 167.822 156.032C168.448 156.889 169.371 157.317 170.624 157.317C178.537 157.317 185 154.614 189.946 149.239C195.023 143.832 198.09 137.468 199.145 130.116C200.167 122.763 199.079 116.399 195.881 110.992ZM195.881 110.992C192.814 105.485 188 102.716 181.439 102.716C179.856 102.716 178.603 102.782 177.713 102.914C175.273 103.507 173.822 105.485 173.361 108.783L167.096 153.295C166.964 154.251 167.195 155.174 167.822 156.032C168.448 156.889 169.371 157.317 170.624 157.317C178.537 157.317 185 154.614 189.946 149.239C195.023 143.832 198.09 137.468 199.145 130.116C200.167 122.763 199.079 116.399 195.881 110.992ZM195.881 110.992C192.814 105.485 188 102.716 181.439 102.716C179.856 102.716 178.603 102.782 177.713 102.914C175.273 103.507 173.822 105.485 173.361 108.783L167.096 153.295C166.964 154.251 167.195 155.174 167.822 156.032C168.448 156.889 169.371 157.317 170.624 157.317C178.537 157.317 185 154.614 189.946 149.239C195.023 143.832 198.09 137.468 199.145 130.116C200.167 122.763 199.079 116.399 195.881 110.992ZM195.881 110.992C192.814 105.485 188 102.716 181.439 102.716C179.856 102.716 178.603 102.782 177.713 102.914C175.273 103.507 173.822 105.485 173.361 108.783L167.096 153.295C166.964 154.251 167.195 155.174 167.822 156.032C168.448 156.889 169.371 157.317 170.624 157.317C178.537 157.317 185 154.614 189.946 149.239C195.023 143.832 198.09 137.468 199.145 130.116C200.167 122.763 199.079 116.399 195.881 110.992ZM195.881 110.992C192.814 105.485 188 102.716 181.439 102.716C179.856 102.716 178.603 102.782 177.713 102.914C175.273 103.507 173.822 105.485 173.361 108.783L167.096 153.295C166.964 154.251 167.195 155.174 167.822 156.032C168.448 156.889 169.371 157.317 170.624 157.317C178.537 157.317 185 154.614 189.946 149.239C195.023 143.832 198.09 137.468 199.145 130.116C200.167 122.763 199.079 116.399 195.881 110.992Z" fill="#02883F"/>
<path d="M607.342 199.456V198.862C607.342 198.005 607.407 196.917 607.506 195.466C604.011 197.609 600.351 199.423 596.428 200.94C597.813 205.127 599.923 208.853 602.66 212.018L603.583 212.974C606.023 215.48 608.759 217.525 611.727 219.107C608.825 213.601 607.374 207.039 607.342 199.456ZM441.558 202.292V201.434C441.558 201.269 441.558 201.137 441.624 200.973C439.349 203.248 436.942 205.49 434.436 207.633C434.271 207.765 434.107 207.897 433.942 208.029C434.568 209.018 435.261 209.974 436.019 210.897L436.448 211.425C438.558 213.832 441.558 216.535 445.647 218.712C442.91 213.7 441.525 208.128 441.558 202.292ZM257.805 193.587C257.377 194.147 256.915 194.708 256.453 195.268C256.717 195.532 256.948 195.763 257.212 196.027C259.091 197.873 261.102 199.621 263.246 201.302C261.267 198.829 259.454 196.258 257.805 193.587Z" fill="black"/>
<path d="M787.864 88.9004C789.084 80.2287 788.095 72.6452 784.897 66.3475C783.809 64.1054 782.424 62.0282 780.742 60.0828C774.972 53.4555 766.466 49.7956 756.805 49.7956C691.026 49.7956 654.559 49.8945 645.228 50.1583C630.588 50.6199 618.883 58.8299 612.486 72.5462C600.419 58.2364 583.372 50.455 562.863 49.9604C547.531 49.5977 533.09 49.3999 519.868 49.3999C506.646 49.3999 494.117 49.5318 482.61 49.7956C464.178 49.9934 450.264 60.1488 444.461 77.2612C444.362 77.4591 444.296 77.6899 444.23 77.8877C443.736 77.2283 443.241 76.5359 442.713 75.8764C440.933 73.6013 439.021 71.3593 436.91 69.2161C428.503 60.5444 417.127 53.7522 403.114 49.1032C390.255 44.7838 375.22 42.6077 358.404 42.6077C341.588 42.6077 325.828 44.9157 311.089 49.4988C295.922 54.1808 282.931 60.6434 272.281 68.8204C266.94 72.9749 262.06 77.4591 257.741 82.24C255.564 80.0309 253.223 78.0196 250.685 76.1732C244.321 67.4026 235.419 60.3136 224.241 55.203C213.987 50.2901 202.875 47.5535 191.137 47.0589C181.938 46.5313 169.672 46.3005 153.582 46.3005C137.492 46.3005 125.49 46.5313 117.28 47.0589C96.0129 48.5097 81.2085 62.4898 77.6805 84.3502C74.4822 103.408 71.6466 121.773 69.2396 138.985C66.8327 156.196 65.0192 171.825 63.8652 185.409V185.772C63.0409 197.477 68.3494 207.962 78.0431 213.831C78.7026 214.227 79.428 214.623 80.1204 215.018C85.4948 217.788 92.0563 219.371 100.101 219.931C106.465 220.492 117.379 220.755 133.469 220.755C149.559 220.755 161.825 220.36 170.925 219.568C183.652 218.777 195.753 215.744 206.766 210.633C218.108 205.489 227.901 198.697 235.913 190.454C239.045 187.223 241.947 183.86 244.618 180.398C247.882 185.673 251.839 190.652 256.455 195.268C256.916 194.708 257.378 194.147 257.807 193.586C259.455 196.257 261.269 198.829 263.247 201.302C271.358 207.666 281.349 212.875 293.152 216.898C306.935 221.382 322.662 223.69 339.94 223.69H340.764C356.459 223.096 371.428 220.228 385.408 215.084C399.388 209.776 411.456 202.819 421.249 194.444C423.755 192.301 426.162 190.058 428.437 187.783C428.437 187.948 428.437 188.08 428.437 188.245V189.102C428.338 195.927 430.25 202.423 433.976 208.028C434.141 207.896 434.306 207.764 434.47 207.633C436.976 205.489 439.383 203.247 441.658 200.972C441.658 201.137 441.658 201.269 441.658 201.434V202.291C441.592 208.127 442.977 213.699 445.714 218.711C449.539 220.755 454.32 222.305 460.288 222.734C471.432 223.36 481.554 223.69 490.391 223.69C499.227 223.69 507.602 223.492 515.153 223.096C536.816 222.008 546.443 208.16 548.191 195.532L548.488 193.521H550.136C567.249 193.521 582.086 189.762 594.385 182.277C594.286 183.728 594.22 184.816 594.22 185.673V186.267C594.253 191.674 594.978 196.587 596.495 200.939C600.419 199.423 604.078 197.609 607.573 195.466C607.475 196.917 607.409 198.005 607.409 198.862V199.455C607.442 207.039 608.892 213.6 611.794 219.107C616.641 221.646 622.081 222.965 627.983 222.965H742.528C748.232 222.965 759.245 221.118 768.444 208.951C773.291 202.456 776.357 195.103 777.478 187.091C779.654 171.627 773.818 163.021 768.279 158.438C766.927 157.317 765.509 156.295 764.026 155.405C766.63 151.217 768.378 146.14 769.202 140.205C770.29 132.489 769.961 126.455 768.114 121.213C767.62 119.696 766.993 118.278 766.367 116.993C777.907 112.97 785.952 102.815 787.93 88.9004H787.864ZM242.31 130.676C241.123 139.183 238.551 147.228 234.66 154.778C230.934 161.933 226.054 168.66 219.955 174.957C213.855 181.222 206.403 186.366 197.534 190.421C188.796 194.444 179.366 196.785 169.277 197.411C160.869 198.137 148.933 198.499 133.469 198.499C118.005 198.499 107.454 198.268 101.816 197.774C96.3096 197.411 92.2211 196.422 89.6163 194.839C86.9786 193.224 85.7916 190.718 86.0224 187.289C87.1434 174.067 88.8909 158.966 91.2649 142.051C93.6719 125.038 96.4415 107.002 99.6068 88.0101C101.519 76.2391 107.883 70.0074 118.764 69.249C126.38 68.7874 137.986 68.5237 153.582 68.5237C169.178 68.5237 181.344 68.7874 190.049 69.249C198.919 69.6447 207.162 71.656 214.811 75.3159C222.625 78.8769 228.593 83.5259 232.715 89.296C236.638 94.7034 239.441 100.539 241.123 106.738C243.101 114.157 243.497 122.136 242.31 130.676ZM435.493 129.192C435.196 131.302 434.8 133.413 434.24 135.49C434.24 135.556 434.207 135.622 434.207 135.688C432.591 142.15 429.887 148.481 426.129 154.745C421.249 163.087 414.819 170.671 406.774 177.562C398.894 184.288 389.167 189.861 377.528 194.279C365.889 198.565 353.359 200.972 339.94 201.434C324.97 201.434 311.683 199.554 300.077 195.763C288.503 191.839 279.403 186.629 272.776 180.134C266.115 173.638 261.367 166.385 258.532 158.438C258.367 157.977 258.235 157.515 258.07 157.053C255.63 149.371 254.971 141.458 256.158 133.248C257.279 125.203 260.049 117.487 264.467 110.068C264.83 109.442 265.192 108.848 265.588 108.222C270.83 100.144 277.59 92.857 285.932 86.3615C294.405 79.866 304.956 74.6565 317.651 70.7328C330.345 66.8091 343.896 64.8638 358.404 64.8638C372.912 64.8638 385.441 66.6443 396.058 70.1723C406.708 73.7332 415.017 78.5801 420.952 84.7129C431.503 95.6266 436.548 108.321 436.053 122.763C435.987 124.873 435.789 127.016 435.493 129.192ZM606.782 125.697C605.595 134.171 602.793 141.656 598.374 148.217C595.901 151.943 592.901 155.306 589.373 158.438C579.613 167.011 566.523 171.297 550.07 171.297H535.596C533.98 171.297 532.397 171.858 530.881 172.946C529.364 174.067 528.507 175.386 528.276 177.002L526.1 192.432C525.374 197.708 521.319 200.511 513.966 200.906C506.745 201.269 498.865 201.434 490.325 201.434C481.785 201.434 472.289 201.137 461.475 200.511C457.914 200.28 455.177 199.06 453.265 196.851C451.484 194.642 450.594 192.136 450.627 189.3C451.154 178.716 452.968 162.197 456.1 139.743C456.1 139.71 456.133 139.644 456.133 139.611V139.545C456.133 139.216 456.232 138.886 456.265 138.556C456.924 133.808 457.584 129.324 458.21 125.104V125.038C460.65 108.717 462.727 96.385 464.475 88.0101C466.717 77.4591 472.85 72.1506 482.873 72.0187C494.447 71.7879 506.778 71.656 519.868 71.656C532.958 71.656 547.136 71.8538 562.303 72.2165C577.602 72.5792 589.307 78.2834 597.418 89.296C600.781 93.9121 603.287 98.693 604.936 103.639C607.244 110.629 607.87 117.982 606.782 125.697ZM765.839 85.801C764.817 93.0548 761.091 96.6488 754.662 96.6488H713.809C711.204 96.6488 708.995 97.506 707.149 99.2206C705.401 100.935 704.346 103.144 703.984 105.848L702.137 119.07C701.61 122.763 703.027 124.609 706.358 124.609H740.154C742.132 124.609 743.583 124.774 744.539 125.137C745.594 125.532 746.419 126.62 747.045 128.467C747.672 130.181 747.672 133.05 747.111 137.105C746.55 141.161 745.429 143.832 743.748 145.184C742.198 146.535 739.824 147.228 736.593 147.228H706.325C703.258 147.228 700.95 148.019 699.499 149.602C698.181 151.086 697.29 153.394 696.862 156.592L695.576 165.593C694.85 170.869 697.027 173.507 702.071 173.507H748.298C750.54 173.507 752.42 174.166 753.969 175.518C755.519 176.738 756.013 179.573 755.387 183.992C754.793 188.278 753.178 192.136 750.606 195.565C748.001 198.994 745.298 200.708 742.462 200.708H627.917C624.422 200.708 621.62 199.62 619.443 197.411C617.432 195.07 616.41 191.344 616.377 186.201C616.476 182.178 617.597 172.056 619.773 155.899C620.433 150.954 621.191 145.414 622.048 139.315C624.224 123.884 626.071 111.651 627.686 102.551C628.774 96.2201 629.698 91.4722 630.522 88.2079C632.962 77.9207 638.106 72.6452 645.953 72.3814C654.888 72.1506 691.85 72.0187 756.805 72.0187C764.125 72.0187 767.125 76.6018 765.839 85.801Z" fill="black"/>
<path d="M241.118 106.739C239.437 100.54 236.634 94.7044 232.711 89.297C228.589 83.5269 222.621 78.8779 214.807 75.3169C207.157 71.657 198.914 69.6457 190.045 69.25C181.34 68.7884 169.173 68.5247 153.578 68.5247C137.982 68.5247 126.376 68.7884 118.759 69.25C107.878 70.0084 101.515 76.2401 99.6025 88.0111C96.4372 107.003 93.6675 125.039 91.2606 142.052C88.8866 158.967 87.1391 174.068 86.018 187.29C85.7872 190.719 86.9742 193.225 89.612 194.84C92.2168 196.423 96.3053 197.412 101.812 197.775C107.45 198.269 118.001 198.5 133.465 198.5C148.929 198.5 160.864 198.138 169.272 197.412C179.362 196.786 188.792 194.445 197.529 190.422C206.399 186.367 213.851 181.223 219.95 174.958C226.05 168.661 230.93 161.934 234.656 154.779C238.547 147.229 241.118 139.184 242.305 130.677C243.492 122.137 243.097 114.158 241.118 106.739ZM199.145 130.116C198.09 137.469 195.023 143.833 189.946 149.24C185 154.615 178.537 157.318 170.624 157.318C169.371 157.318 168.448 156.89 167.822 156.032C167.195 155.175 166.964 154.252 167.096 153.296L173.361 108.783C173.822 105.486 175.273 103.508 177.713 102.914C178.603 102.783 179.856 102.717 181.439 102.717C188 102.717 192.814 105.486 195.881 110.993C199.079 116.4 200.167 122.764 199.145 130.116Z" fill="#31CC66"/>
<path d="M382.533 114.848C378.972 110.43 372.839 108.22 364.167 108.22C355.496 108.22 348.506 110.496 342.801 115.046C337.064 119.563 333.767 125.102 332.844 131.598C331.954 138.093 333.866 143.303 338.647 147.226C343.428 151.117 349.495 153.095 356.946 153.095C364.398 153.095 371.124 150.688 376.895 145.94C382.632 141.159 385.896 135.884 386.72 130.114C387.544 124.245 386.16 119.134 382.533 114.848ZM382.533 114.848C378.972 110.43 372.839 108.22 364.167 108.22C355.496 108.22 348.506 110.496 342.801 115.046C337.064 119.563 333.767 125.102 332.844 131.598C331.954 138.093 333.866 143.303 338.647 147.226C343.428 151.117 349.495 153.095 356.946 153.095C364.398 153.095 371.124 150.688 376.895 145.94C382.632 141.159 385.896 135.884 386.72 130.114C387.544 124.245 386.16 119.134 382.533 114.848ZM382.533 114.848C378.972 110.43 372.839 108.22 364.167 108.22C355.496 108.22 348.506 110.496 342.801 115.046C337.064 119.563 333.767 125.102 332.844 131.598C331.954 138.093 333.866 143.303 338.647 147.226C343.428 151.117 349.495 153.095 356.946 153.095C364.398 153.095 371.124 150.688 376.895 145.94C382.632 141.159 385.896 135.884 386.72 130.114C387.544 124.245 386.16 119.134 382.533 114.848ZM382.533 114.848C378.972 110.43 372.839 108.22 364.167 108.22C355.496 108.22 348.506 110.496 342.801 115.046C337.064 119.563 333.767 125.102 332.844 131.598C331.954 138.093 333.866 143.303 338.647 147.226C343.428 151.117 349.495 153.095 356.946 153.095C364.398 153.095 371.124 150.688 376.895 145.94C382.632 141.159 385.896 135.884 386.72 130.114C387.544 124.245 386.16 119.134 382.533 114.848ZM382.533 114.848C378.972 110.43 372.839 108.22 364.167 108.22C355.496 108.22 348.506 110.496 342.801 115.046C337.064 119.563 333.767 125.102 332.844 131.598C331.954 138.093 333.866 143.303 338.647 147.226C343.428 151.117 349.495 153.095 356.946 153.095C364.398 153.095 371.124 150.688 376.895 145.94C382.632 141.159 385.896 135.884 386.72 130.114C387.544 124.245 386.16 119.134 382.533 114.848ZM382.533 114.848C378.972 110.43 372.839 108.22 364.167 108.22C355.496 108.22 348.506 110.496 342.801 115.046C337.064 119.563 333.767 125.102 332.844 131.598C331.954 138.093 333.866 143.303 338.647 147.226C343.428 151.117 349.495 153.095 356.946 153.095C364.398 153.095 371.124 150.688 376.895 145.94C382.632 141.159 385.896 135.884 386.72 130.114C387.544 124.245 386.16 119.134 382.533 114.848ZM382.533 114.848C378.972 110.43 372.839 108.22 364.167 108.22C355.496 108.22 348.506 110.496 342.801 115.046C337.064 119.563 333.767 125.102 332.844 131.598C331.954 138.093 333.866 143.303 338.647 147.226C343.428 151.117 349.495 153.095 356.946 153.095C364.398 153.095 371.124 150.688 376.895 145.94C382.632 141.159 385.896 135.884 386.72 130.114C387.544 124.245 386.16 119.134 382.533 114.848ZM382.533 114.848C378.972 110.43 372.839 108.22 364.167 108.22C355.496 108.22 348.506 110.496 342.801 115.046C337.064 119.563 333.767 125.102 332.844 131.598C331.954 138.093 333.866 143.303 338.647 147.226C343.428 151.117 349.495 153.095 356.946 153.095C364.398 153.095 371.124 150.688 376.895 145.94C382.632 141.159 385.896 135.884 386.72 130.114C387.544 124.245 386.16 119.134 382.533 114.848ZM456.258 138.555C456.225 138.884 456.159 139.214 456.126 139.544C456.72 137.137 457.181 134.73 457.511 132.29C457.841 129.883 458.072 127.476 458.203 125.102C457.577 129.323 456.918 133.807 456.258 138.555ZM434.233 135.488C434.793 133.411 435.189 131.301 435.486 129.191C435.782 127.015 435.98 124.871 436.046 122.761C435.486 126.751 434.859 131.004 434.233 135.488ZM382.533 114.848C378.972 110.43 372.839 108.22 364.167 108.22C355.496 108.22 348.506 110.496 342.801 115.046C337.064 119.563 333.767 125.102 332.844 131.598C331.954 138.093 333.866 143.303 338.647 147.226C343.428 151.117 349.495 153.095 356.946 153.095C364.398 153.095 371.124 150.688 376.895 145.94C382.632 141.159 385.896 135.884 386.72 130.114C387.544 124.245 386.16 119.134 382.533 114.848ZM382.533 114.848C378.972 110.43 372.839 108.22 364.167 108.22C355.496 108.22 348.506 110.496 342.801 115.046C337.064 119.563 333.767 125.102 332.844 131.598C331.954 138.093 333.866 143.303 338.647 147.226C343.428 151.117 349.495 153.095 356.946 153.095C364.398 153.095 371.124 150.688 376.895 145.94C382.632 141.159 385.896 135.884 386.72 130.114C387.544 124.245 386.16 119.134 382.533 114.848ZM382.533 114.848C378.972 110.43 372.839 108.22 364.167 108.22C355.496 108.22 348.506 110.496 342.801 115.046C337.064 119.563 333.767 125.102 332.844 131.598C331.954 138.093 333.866 143.303 338.647 147.226C343.428 151.117 349.495 153.095 356.946 153.095C364.398 153.095 371.124 150.688 376.895 145.94C382.632 141.159 385.896 135.884 386.72 130.114C387.544 124.245 386.16 119.134 382.533 114.848ZM382.533 114.848C378.972 110.43 372.839 108.22 364.167 108.22C355.496 108.22 348.506 110.496 342.801 115.046C337.064 119.563 333.767 125.102 332.844 131.598C331.954 138.093 333.866 143.303 338.647 147.226C343.428 151.117 349.495 153.095 356.946 153.095C364.398 153.095 371.124 150.688 376.895 145.94C382.632 141.159 385.896 135.884 386.72 130.114C387.544 124.245 386.16 119.134 382.533 114.848ZM382.533 114.848C378.972 110.43 372.839 108.22 364.167 108.22C355.496 108.22 348.506 110.496 342.801 115.046C337.064 119.563 333.767 125.102 332.844 131.598C331.954 138.093 333.866 143.303 338.647 147.226C343.428 151.117 349.495 153.095 356.946 153.095C364.398 153.095 371.124 150.688 376.895 145.94C382.632 141.159 385.896 135.884 386.72 130.114C387.544 124.245 386.16 119.134 382.533 114.848ZM382.533 114.848C378.972 110.43 372.839 108.22 364.167 108.22C355.496 108.22 348.506 110.496 342.801 115.046C337.064 119.563 333.767 125.102 332.844 131.598C331.954 138.093 333.866 143.303 338.647 147.226C343.428 151.117 349.495 153.095 356.946 153.095C364.398 153.095 371.124 150.688 376.895 145.94C382.632 141.159 385.896 135.884 386.72 130.114C387.544 124.245 386.16 119.134 382.533 114.848ZM382.533 114.848C378.972 110.43 372.839 108.22 364.167 108.22C355.496 108.22 348.506 110.496 342.801 115.046C337.064 119.563 333.767 125.102 332.844 131.598C331.954 138.093 333.866 143.303 338.647 147.226C343.428 151.117 349.495 153.095 356.946 153.095C364.398 153.095 371.124 150.688 376.895 145.94C382.632 141.159 385.896 135.884 386.72 130.114C387.544 124.245 386.16 119.134 382.533 114.848Z" fill="#F355A0"/>
<path d="M420.944 84.7127C415.009 78.5799 406.7 73.733 396.05 70.172C385.433 66.644 372.871 64.8635 358.396 64.8635C343.921 64.8635 330.337 66.8089 317.643 70.7325C304.948 74.6562 294.397 79.8658 285.923 86.3613C277.582 92.8568 270.822 100.144 265.58 108.222C265.184 108.848 264.821 109.442 264.459 110.068C260.04 117.487 257.271 125.202 256.15 133.247C254.963 141.457 255.622 149.371 258.062 157.053C258.227 157.515 258.359 157.976 258.524 158.438C261.359 166.384 266.107 173.638 272.768 180.134C279.395 186.629 288.495 191.839 300.068 195.762C311.675 199.554 324.962 201.434 339.932 201.434C353.351 200.972 365.881 198.565 377.52 194.279C389.159 189.86 398.886 184.288 406.766 177.562C414.811 170.671 421.241 163.087 426.12 154.745C429.879 148.481 432.583 142.15 434.199 135.687C434.199 135.621 434.232 135.556 434.232 135.49C434.858 131.005 435.485 126.752 436.045 122.762C436.54 108.321 431.495 95.6264 420.944 84.7127ZM386.719 130.115C385.895 135.885 382.63 141.161 376.893 145.942C371.123 150.69 364.496 153.097 356.945 153.097C349.395 153.097 343.427 151.118 338.646 147.228C333.865 143.304 331.952 138.094 332.843 131.599C333.766 125.103 337.063 119.564 342.8 115.047C348.504 110.497 355.626 108.222 364.166 108.222C372.706 108.222 378.97 110.431 382.531 114.849C386.158 119.135 387.543 124.246 386.719 130.115Z" fill="#FEA1CD"/>
<path d="M456.256 138.555C456.223 138.884 456.157 139.214 456.124 139.544C456.717 137.137 457.179 134.73 457.509 132.29C457.838 129.883 458.069 127.476 458.201 125.102C457.575 129.322 456.915 133.807 456.256 138.555ZM434.23 135.488C434.791 133.411 435.187 131.301 435.483 129.191C435.78 127.014 435.978 124.871 436.044 122.761C435.483 126.751 434.857 131.004 434.23 135.488Z" fill="black"/>
<path d="M604.924 103.637C603.276 98.6913 600.77 93.9104 597.407 89.2943C589.295 78.2817 577.59 72.5775 562.291 72.2148C547.124 71.8521 532.979 71.6543 519.856 71.6543C506.733 71.6543 494.435 71.7862 482.862 72.017C472.838 72.1489 466.705 77.4574 464.463 88.0084C462.716 96.3833 460.639 108.715 458.199 125.036V125.102C458.067 127.476 457.836 129.883 457.506 132.29C457.177 134.73 456.715 137.137 456.121 139.544V139.61C456.121 139.61 456.088 139.709 456.088 139.741C452.956 162.195 451.143 178.714 450.615 189.298C450.582 192.134 451.472 194.64 453.253 196.849C455.165 199.058 457.902 200.278 461.463 200.509C472.278 201.135 481.873 201.432 490.313 201.432C498.754 201.432 506.733 201.267 513.954 200.905C521.307 200.509 525.363 197.706 526.088 192.431L528.264 177C528.495 175.384 529.352 174.065 530.869 172.944C532.386 171.856 533.968 171.296 535.584 171.296H550.059C566.512 171.296 579.602 167.009 589.361 158.437C592.889 155.304 595.89 151.941 598.363 148.215C602.781 141.654 605.584 134.169 606.771 125.695C607.859 117.98 607.232 110.627 604.924 103.637ZM564.138 126.619C563.313 132.389 560.379 137.4 555.334 141.687C550.421 145.874 544.124 147.952 536.441 147.952C533.836 147.952 532.715 146.797 533.045 144.456L537.43 110.429C537.892 107.132 539.607 105.484 542.607 105.484C550.652 105.484 556.422 107.561 559.917 111.715C563.544 115.903 564.929 120.849 564.138 126.619Z" fill="#FECE00"/>
<path d="M564.139 126.619C563.314 132.389 560.38 137.401 555.335 141.687C550.422 145.874 544.125 147.952 536.442 147.952C533.837 147.952 532.716 146.798 533.046 144.457L537.431 110.429C537.893 107.132 539.608 105.484 542.608 105.484C550.653 105.484 556.423 107.561 559.918 111.715C563.545 115.903 564.93 120.849 564.139 126.619Z" fill="#D1AA00"/>
<path d="M765.831 85.8009C764.809 93.0547 761.083 96.6486 754.653 96.6486H713.801C711.196 96.6486 708.987 97.5059 707.141 99.2205C705.393 100.935 704.338 103.144 703.975 105.848L702.129 119.07C701.602 122.762 703.019 124.609 706.349 124.609H740.146C742.124 124.609 743.575 124.774 744.531 125.136C745.586 125.532 746.41 126.62 747.037 128.467C747.663 130.181 747.663 133.05 747.103 137.105C746.542 141.161 745.421 143.832 743.74 145.183C742.19 146.535 739.816 147.228 736.585 147.228H706.317C703.25 147.228 700.942 148.019 699.491 149.602C698.172 151.085 697.282 153.393 696.854 156.592L695.568 165.593C694.842 170.869 697.018 173.506 702.063 173.506H748.29C750.532 173.506 752.411 174.166 753.961 175.518C755.511 176.738 756.005 179.573 755.379 183.991C754.785 188.278 753.17 192.136 750.598 195.565C747.993 198.994 745.289 200.708 742.454 200.708H627.909C624.414 200.708 621.611 199.62 619.435 197.411C617.424 195.07 616.402 191.344 616.369 186.201C616.468 182.178 617.589 172.056 619.765 155.899C620.424 150.954 621.183 145.414 622.04 139.314C624.216 123.884 626.063 111.651 627.678 102.551C628.766 96.22 629.69 91.472 630.514 88.2078C632.954 77.9205 638.097 72.645 645.945 72.3812C654.88 72.1504 691.842 72.0186 756.797 72.0186C764.116 72.0186 767.117 76.6017 765.831 85.8009Z" fill="#FE9900"/>
</svg>
